# This file uses centimeters as units for non-parametric coordinates.

v -1.051519 0.000000 1.051519
v 1.051519 0.000000 1.051519
v -1.051519 2.103038 1.051519
v 1.051519 2.103038 1.051519
v -1.051519 2.103038 -1.051519
v 1.051519 2.103038 -1.051519
v -1.051519 0.000000 -1.051519
v 1.051519 0.000000 -1.051519
vt 0.011719 0.013672
vt 0.343750 0.013672
vt 0.343750 0.343750
vt 0.011719 0.343750
vt 0.011719 0.013672
vt 0.343750 0.013672
vt 0.343750 0.343750
vt 0.011719 0.343750
vt 0.011719 0.013672
vt 0.343750 0.013672
vt 0.343750 0.343750
vt 0.011719 0.343750
vt 0.011719 0.013672
vt 0.343750 0.013672
vt 0.343750 0.343750
vt 0.011719 0.343750
vt 0.011719 0.013672
vt 0.343750 0.013672
vt 0.343750 0.343750
vt 0.011719 0.343750
vt 0.011719 0.013672
vt 0.343750 0.013672
vt 0.343750 0.343750
vt 0.011719 0.343750
vn 0.000000 1.000000 0.000000
vn 0.000000 1.000000 0.000000
vn 0.000000 1.000000 0.000000
vn 0.000000 1.000000 0.000000
vn 0.000000 0.000000 -1.000000
vn 0.000000 0.000000 -1.000000
vn 0.000000 0.000000 -1.000000
vn 0.000000 0.000000 -1.000000
vn -1.000000 0.000000 0.000000
vn -1.000000 0.000000 0.000000
vn -1.000000 0.000000 0.000000
vn -1.000000 0.000000 0.000000
vn 1.000000 0.000000 0.000000
vn 1.000000 0.000000 0.000000
vn 1.000000 0.000000 0.000000
vn 1.000000 0.000000 0.000000
vn 0.000000 0.000000 1.000000
vn 0.000000 0.000000 1.000000
vn 0.000000 0.000000 1.000000
vn 0.000000 0.000000 1.000000
vn 0.000000 -1.000000 0.000000
vn 0.000000 -1.000000 0.000000
vn 0.000000 -1.000000 0.000000
vn 0.000000 -1.000000 0.000000
f 3/1/1 4/2/2 6/3/3 5/4/4
f 5/5/5 6/6/6 8/7/7 7/8/8
f 7/9/9 1/10/10 3/11/11 5/12/12
f 2/13/13 8/14/14 6/15/15 4/16/16
f 1/17/17 2/18/18 4/19/19 3/20/20
f 7/21/21 8/22/22 2/23/23 1/24/24
