# This file uses centimeters as units for non-parametric coordinates.

v -0.920789 0.000000 0.920789
v 0.920789 0.000000 0.920788
v -0.907151 1.841577 0.907151
v 0.907151 1.841577 0.907149
v -0.907151 1.841577 -0.907150
v 0.907151 1.841577 -0.907151
v -0.920789 0.000000 -0.920788
v 0.920789 0.000000 -0.920789
vt 0.656250 0.000000
vt 0.986328 0.000000
vt 0.986328 0.334768
vt 0.656250 0.334768
vt 0.656250 0.000000
vt 0.986328 0.000000
vt 0.986328 0.334768
vt 0.656250 0.334768
vt 0.656250 0.000000
vt 0.986328 0.000000
vt 0.986328 0.334768
vt 0.656250 0.334768
vt 0.656250 0.000000
vt 0.986328 0.000000
vt 0.986328 0.334768
vt 0.656250 0.334768
vt 0.656250 0.000000
vt 0.986328 0.000000
vt 0.986328 0.334768
vt 0.656250 0.334768
vt 0.656250 0.000000
vt 0.986328 0.000000
vt 0.986328 0.334768
vt 0.656250 0.334768
vn 0.000000 -1.000000 0.000000
vn 0.000000 -1.000000 0.000000
vn 0.000000 -1.000000 0.000000
vn 0.000000 -1.000000 0.000000
vn -0.999973 0.007405 0.000000
vn -0.999973 0.007405 0.000000
vn -0.999973 0.007405 0.000000
vn -0.999973 0.007405 0.000000
vn -0.000000 0.007405 -0.999973
vn -0.000000 0.007405 -0.999973
vn -0.000000 0.007405 -0.999973
vn -0.000000 0.007405 -0.999973
vn 0.999973 0.007405 0.000000
vn 0.999973 0.007405 0.000000
vn 0.999973 0.007405 0.000000
vn 0.999973 0.007405 0.000000
vn 0.000000 0.007406 0.999973
vn 0.000000 0.007406 0.999973
vn 0.000000 0.007406 0.999973
vn 0.000000 0.007406 0.999973
vn 0.000000 1.000000 0.000000
vn 0.000000 1.000000 0.000000
vn 0.000000 1.000000 0.000000
vn 0.000000 1.000000 0.000000
f 7/1/1 8/2/2 2/3/3 1/4/4
f 7/5/5 1/6/6 3/7/7 5/8/8
f 5/9/9 6/10/10 8/11/11 7/12/12
f 2/13/13 8/14/14 6/15/15 4/16/16
f 1/17/17 2/18/18 4/19/19 3/20/20
f 3/21/21 4/22/22 6/23/23 5/24/24
