# This file uses centimeters as units for non-parametric coordinates.

v 0.860646 1.542174 0.800279
v -0.871882 1.542174 0.800279
v -0.919223 1.542174 -0.836743
v 0.860646 1.542174 -0.836743
v 0.886233 0.253118 0.849418
v -0.885648 0.253118 0.849418
v -0.932988 0.253118 -0.883111
v 0.932988 0.253118 -0.883111
v -0.953951 1.784244 0.881420
v 0.946389 1.784244 0.881420
v 0.946389 1.784244 -0.881460
v -1.001292 1.784244 -0.881460
v 0.893867 1.553391 0.842896
v -0.919734 1.553391 0.842896
v -0.967075 1.553391 -0.881460
v 0.893867 1.553391 -0.881460
v -0.990526 0.000000 0.940650
v 0.943771 0.000000 0.940650
v 0.943771 0.243299 0.906956
v -0.943186 0.243299 0.906956
v -0.990526 0.000000 -0.940650
v 0.990526 0.000000 -0.940650
v -0.990526 0.243299 -0.940650
v 0.990526 0.243299 -0.940650
v -0.381523 1.755679 0.881420
v -0.389419 1.755679 -0.881460
v -0.383568 1.553391 0.842896
v -0.379799 1.553391 -0.881460
v 0.376159 1.553391 0.842896
v 0.266828 1.553391 -0.881460
v 0.265966 1.831890 0.881420
v 0.262018 1.831890 -0.881460
vt 0.011719 0.670450
vt 0.343049 0.345703
vt 0.343049 0.670450
vt 0.630859 0.670450
vt 0.630859 0.670450
vt 0.343049 0.670450
vt 0.343049 1.000000
vt 0.630859 1.000000
vt 0.011719 1.000000
vt 0.343049 1.000000
vt 0.630859 0.345703
vt 0.343049 0.670450
vt 0.630859 1.000000
vt 0.343049 1.000000
vt 0.343049 0.670450
vt 0.630859 0.670450
vt 0.343049 0.345703
vt 0.630859 0.345703
vt 0.011719 1.000000
vt 0.011719 0.670450
vt 0.343049 0.630089
vt 0.301869 1.000000
vt 0.301869 0.670450
vt 0.630859 0.630089
vt 0.301869 1.000000
vt 0.630859 0.630089
vt 0.343049 0.630089
vt 0.301869 0.670450
vt 0.343049 0.388467
vt 0.055349 1.000000
vt 0.055349 0.670450
vt 0.630859 0.388467
vt 0.055349 1.000000
vt 0.630859 0.388467
vt 0.343049 0.388467
vt 0.055349 0.670450
vt 0.630859 0.630089
vt 0.343049 0.630089
vt 0.301869 1.000000
vt 0.301869 0.670450
vt 0.343049 0.630089
vt 0.630859 0.630089
vt 0.301869 1.000000
vt 0.301869 0.670450
vt 0.343049 0.388467
vt 0.630859 0.388467
vt 0.055349 0.670450
vt 0.055349 1.000000
vt 0.630859 0.388467
vt 0.343049 0.388467
vt 0.055349 0.670450
vt 0.055349 1.000000
vt 0.543707 1.000000
vt 0.544930 0.670450
vt 0.544023 0.630089
vt 0.543707 0.670450
vt 0.543439 0.630089
vt 0.426303 0.630089
vt 0.443244 0.630089
vt 0.443378 0.670450
vt 0.443989 0.670450
vt 0.443378 1.000000
vn 0.000000 0.137178 0.990546
vn 0.000000 0.137178 0.990546
vn 0.000000 0.137178 0.990546
vn 0.000000 0.137178 0.990546
vn 0.000000 -1.000000 -0.000000
vn 0.000000 -1.000000 -0.000000
vn 0.000000 -1.000000 -0.000000
vn 0.000000 -1.000000 -0.000000
vn -0.995137 0.097690 0.012634
vn -0.995137 0.097690 0.012634
vn -0.995137 0.097690 0.012634
vn -0.995137 0.097690 0.012634
vn 0.000000 0.000000 -1.000000
vn 0.000000 0.000000 -1.000000
vn 0.000000 0.000000 -1.000000
vn 0.000000 0.000000 -1.000000
vn 0.999684 0.001736 0.025069
vn 0.999684 0.001736 0.025069
vn 0.999684 0.001736 0.025069
vn 0.999684 0.001736 0.025069
vn 0.000000 0.985748 0.168226
vn 0.000000 0.985748 0.168226
vn 0.000000 0.985748 0.168226
vn 0.000000 0.985748 0.168226
vn -0.168225 0.985739 0.004449
vn -0.168225 0.985739 0.004449
vn -0.168225 0.985739 0.004449
vn -0.168225 0.985739 0.004449
vn 0.000000 0.985749 -0.168226
vn 0.000000 0.985749 -0.168226
vn 0.000000 0.985749 -0.168226
vn 0.000000 0.985749 -0.168226
vn 0.168225 0.985739 0.004394
vn 0.168225 0.985739 0.004394
vn 0.168225 0.985739 0.004394
vn 0.168225 0.985739 0.004394
vn -0.988510 -0.148757 0.026839
vn -0.988510 -0.148757 0.026839
vn -0.988510 -0.148757 0.026839
vn -0.988510 -0.148757 0.026839
vn 0.048182 0.998838 -0.000755
vn 0.048182 0.998838 -0.000755
vn 0.048182 0.998838 -0.000755
vn 0.048182 0.998838 -0.000755
vn -0.004521 -0.175454 0.984477
vn -0.004521 -0.175454 0.984477
vn -0.004521 -0.175454 0.984477
vn -0.004521 -0.175454 0.984477
vn 0.000000 0.000000 -1.000000
vn 0.000000 0.000000 -1.000000
vn 0.000000 0.000000 -1.000000
vn 0.000000 0.000000 -1.000000
vn 0.975082 -0.221843 0.000000
vn 0.975082 -0.221843 0.000000
vn 0.975082 -0.221843 0.000000
vn 0.975082 -0.221843 0.000000
vn 0.000000 0.038093 0.999274
vn 0.000000 0.038093 0.999274
vn 0.000000 0.038093 0.999274
vn 0.000000 0.038093 0.999274
vn -0.999548 0.010704 0.028086
vn -0.999548 0.010704 0.028086
vn -0.999548 0.010704 0.028086
vn -0.999548 0.010704 0.028086
vn 0.000000 0.035947 -0.999354
vn 0.000000 0.035947 -0.999354
vn 0.000000 0.035947 -0.999354
vn 0.000000 0.035947 -0.999354
vn 0.999183 0.037968 0.013864
vn 0.999183 0.037968 0.013864
vn 0.999183 0.037968 0.013864
vn 0.999183 0.037968 0.013864
vn 0.000000 -0.967061 0.254546
vn 0.000000 -0.967061 0.254546
vn 0.000000 -0.967061 0.254546
vn 0.000000 -0.967061 0.254546
vn -0.228364 -0.973555 0.006432
vn -0.228364 -0.973555 0.006432
vn -0.228364 -0.973555 0.006432
vn -0.228364 -0.973555 0.006432
vn 0.000000 -0.969946 -0.243322
vn 0.000000 -0.969946 -0.243322
vn 0.000000 -0.969946 -0.243322
vn 0.319923 -0.947444 0.000000
vn 0.319923 -0.947444 0.000000
vn 0.319923 -0.947444 0.000000
vn 0.319923 -0.947444 0.000000
vn 0.000000 -0.967062 0.254541
vn 0.000000 -0.967062 0.254541
vn 0.000000 -0.967062 0.254541
vn 0.000000 -0.969947 -0.243316
vn 0.000000 -0.969947 -0.243316
vn 0.000000 -0.969947 -0.243316
vn -0.005974 -0.150222 0.988634
vn -0.005974 -0.150222 0.988634
vn -0.005974 -0.150222 0.988634
vn -0.005974 -0.150222 0.988634
vn 0.069653 0.997571 -0.000078
vn 0.069653 0.997571 -0.000078
vn 0.069653 0.997571 -0.000078
vn 0.069653 0.997571 -0.000078
vn 0.000000 0.000000 -1.000000
vn 0.000000 0.000000 -1.000000
vn 0.000000 0.000000 -1.000000
vn 0.000000 0.000000 -1.000000
vn 0.000000 -0.967061 0.254544
vn 0.000000 -0.967061 0.254544
vn 0.000000 -0.967061 0.254544
vn 0.000000 -0.969946 -0.243319
vn 0.000000 -0.969946 -0.243319
vn 0.000000 -0.969946 -0.243319
vn 0.000000 -0.969946 -0.243319
vn -0.000000 0.000000 -1.000000
vn -0.000000 0.000000 -1.000000
vn -0.000000 0.000000 -1.000000
vn -0.000000 0.000000 -1.000000
vn -0.116544 0.993185 0.000392
vn -0.116544 0.993185 0.000392
vn -0.116544 0.993185 0.000392
vn -0.116544 0.993185 0.000392
vn 0.008469 -0.156370 0.987662
vn 0.008469 -0.156370 0.987662
vn 0.008469 -0.156370 0.987662
vn 0.008469 -0.156370 0.987662
f 17/11/1 18/2/2 19/45/3 20/46/4
f 21/5/5 22/6/6 18/7/7 17/8/8
f 21/9/9 17/1/10 20/47/11 23/48/12
f 23/49/13 24/50/14 22/17/15 21/18/16
f 18/19/17 22/20/18 24/51/19 19/52/20
f 5/29/21 6/32/22 20/46/23 19/45/24
f 6/31/25 7/33/26 23/48/27 20/47/28
f 7/34/29 8/35/30 24/50/31 23/49/32
f 8/36/33 5/30/34 19/52/35 24/51/36
f 12/10/37 15/39/38 14/40/39 9/12/40
f 9/13/41 25/53/42 26/54/43 12/16/44
f 27/55/45 25/56/46 9/4/47 14/37/48
f 26/54/49 28/57/50 15/42/51 12/16/52
f 11/15/53 10/14/54 13/43/55 16/44/56
f 1/21/57 2/24/58 6/32/59 5/29/60
f 2/23/61 3/25/62 7/33/63 6/31/64
f 8/35/65 7/34/66 3/26/67 4/27/68
f 4/28/69 1/22/70 5/30/71 8/36/72
f 27/55/73 2/24/74 1/21/75 29/58/76
f 14/40/77 15/39/78 3/25/79 2/23/80
f 4/27/81 30/59/82 16/41/83
f 16/44/84 13/43/85 1/22/86 4/28/87
f 2/24/88 27/55/89 14/37/90
f 28/57/91 3/26/92 15/42/93
f 31/60/94 29/58/95 13/38/96 10/3/97
f 32/61/98 31/62/99 10/14/100 11/15/101
f 30/59/102 32/61/103 11/15/104 16/41/105
f 29/58/106 1/21/107 13/38/108
f 30/59/109 4/27/110 3/26/111 28/57/112
f 32/61/113 30/59/114 28/57/115 26/54/116
f 31/62/117 32/61/118 26/54/119 25/53/120
f 29/58/121 31/60/122 25/56/123 27/55/124
