# This file uses centimeters as units for non-parametric coordinates.

v -0.809165 1.682374 0.810226
v 0.809972 1.682374 0.810226
v -0.809971 1.682374 -0.810124
v 0.809165 1.682374 -0.810124
v -0.563994 1.682373 0.563217
v 0.563551 1.682373 0.563216
v 0.563551 1.682373 -0.564327
v -0.563994 1.682373 -0.564327
v -0.563994 1.609178 0.563217
v 0.563551 1.609178 0.563216
v 0.563551 1.609178 -0.564327
v -0.563994 1.609178 -0.564327
v -0.843363 0.000000 0.844416
v -0.844204 0.000000 -0.844416
v -0.844015 0.256185 0.586967
v -0.809790 1.436578 0.563216
v -0.809790 1.436578 -0.564327
v -0.844015 0.256185 -0.588231
v -0.767725 0.256185 0.586967
v -0.736594 1.436578 0.563216
v -0.736594 1.436578 -0.564327
v -0.767725 0.256185 -0.588231
v 0.844204 0.000000 0.844416
v 0.843363 0.000000 -0.844416
v 0.587368 0.000000 0.586967
v -0.587830 0.000000 0.586967
v -0.587830 0.000000 -0.588232
v 0.587368 0.000000 -0.588231
v 0.587368 0.076289 0.586967
v -0.587830 0.076289 0.586967
v -0.587830 0.076289 -0.588232
v 0.587368 0.076289 -0.588231
v 0.809347 1.436577 0.563217
v 0.843553 0.256184 0.586967
v 0.843553 0.256184 -0.588232
v 0.809347 1.436577 -0.564327
v 0.736151 1.436577 0.563217
v 0.767263 0.256184 0.586967
v 0.767263 0.256184 -0.588232
v 0.736151 1.436577 -0.564327
v 0.563005 1.436577 -0.810124
v 0.586799 0.256184 -0.844416
v -0.588399 0.256184 -0.844416
v -0.564539 1.436577 -0.810124
v 0.563005 1.436577 -0.736928
v 0.586799 0.256184 -0.768127
v -0.588399 0.256184 -0.768127
v -0.564539 1.436577 -0.736928
v -0.562119 1.436577 0.812653
v -0.585876 0.256184 0.846945
v 0.589323 0.256184 0.846945
v 0.565425 1.436577 0.812653
v -0.562119 1.436577 0.739457
v -0.585876 0.256184 0.770656
v 0.589323 0.256184 0.770656
v 0.565425 1.436577 0.739457
vt 0.601924 0.090917
vt 0.601924 0.292173
vt 0.396868 0.292745
vt 0.395723 0.090917
vt 0.635733 0.053212
vt 0.635733 0.327289
vt 0.360204 0.327289
vt 0.360204 0.053212
vt 0.593215 0.102136
vt 0.593215 0.281968
vt 0.408813 0.281968
vt 0.408813 0.102136
vt 0.593215 0.102136
vt 0.593215 0.281968
vt 0.408813 0.281968
vt 0.408813 0.102136
vt 0.635733 0.053212
vt 0.635733 0.327289
vt 0.601924 0.292173
vt 0.601924 0.090917
vt 0.360204 0.327289
vt 0.396868 0.292745
vt 0.360204 0.053212
vt 0.395723 0.090917
vt 0.593215 0.102136
vt 0.593215 0.281968
vt 0.408813 0.281968
vt 0.408813 0.102136
vt 0.635733 0.053212
vt 0.635733 0.327289
vt 0.601924 0.292173
vt 0.601924 0.090917
vt 0.360204 0.327289
vt 0.396868 0.292745
vt 0.360204 0.053212
vt 0.395723 0.090917
vt 0.593215 0.102136
vt 0.593215 0.281968
vt 0.408813 0.281968
vt 0.408813 0.102136
vt 0.635733 0.053212
vt 0.635733 0.327289
vt 0.601924 0.292173
vt 0.601924 0.090917
vt 0.360204 0.327289
vt 0.396868 0.292745
vt 0.360204 0.053212
vt 0.395723 0.090917
vt 0.593215 0.102136
vt 0.593215 0.281968
vt 0.408813 0.281968
vt 0.408813 0.102136
vt 0.635733 0.053212
vt 0.635733 0.327289
vt 0.601924 0.292173
vt 0.601924 0.090917
vt 0.360204 0.327289
vt 0.396868 0.292745
vt 0.360204 0.053212
vt 0.395723 0.090917
vt 0.593215 0.102136
vt 0.593215 0.281968
vt 0.408813 0.281968
vt 0.408813 0.102136
vt 0.635733 0.053212
vt 0.635733 0.327289
vt 0.601924 0.292173
vt 0.601924 0.090917
vt 0.360204 0.327289
vt 0.396868 0.292745
vt 0.360204 0.053212
vt 0.395723 0.090917
vn 0.000000 1.000000 0.000000
vn 0.000000 1.000000 0.000000
vn 0.000000 1.000000 0.000000
vn 0.000000 1.000000 0.000000
vn -0.000000 1.000000 -0.000001
vn -0.000000 1.000000 -0.000001
vn -0.000000 1.000000 -0.000001
vn -0.000000 1.000000 -0.000001
vn -0.000001 1.000000 0.000000
vn -0.000001 1.000000 0.000000
vn -0.000001 1.000000 0.000000
vn -0.000001 1.000000 0.000000
vn 0.000000 1.000000 0.000001
vn 0.000000 1.000000 0.000001
vn 0.000000 1.000000 0.000001
vn 0.000000 1.000000 0.000001
vn 0.000001 1.000000 0.000000
vn 0.000001 1.000000 0.000000
vn 0.000001 1.000000 0.000000
vn 0.000001 1.000000 0.000000
vn -0.000001 0.000000 -1.000000
vn -0.000001 0.000000 -1.000000
vn -0.000001 0.000000 -1.000000
vn -0.000001 0.000000 -1.000000
vn -1.000000 0.000000 0.000000
vn -1.000000 0.000000 0.000000
vn -1.000000 0.000000 0.000000
vn -1.000000 0.000000 0.000000
vn 0.000001 0.000000 1.000000
vn 0.000001 0.000000 1.000000
vn 0.000001 0.000000 1.000000
vn 0.000001 0.000000 1.000000
vn 1.000000 0.000000 0.000000
vn 1.000000 0.000000 0.000000
vn 1.000000 0.000000 0.000000
vn 1.000000 0.000000 0.000000
vn -0.999652 0.026365 0.000000
vn -0.999652 0.026365 0.000000
vn -0.999652 0.026365 0.000000
vn -0.999652 0.026365 0.000000
vn -0.999708 0.023955 0.003023
vn -0.999708 0.023955 0.003023
vn -0.999708 0.023955 0.003023
vn -0.999708 0.023955 0.003023
vn -0.999999 0.000901 0.000293
vn -0.999999 0.000901 0.000293
vn -0.999999 0.000901 0.000293
vn -0.999999 0.000901 0.000293
vn -0.999714 0.023901 0.000245
vn -0.999714 0.023901 0.000245
vn -0.999714 0.023901 0.000245
vn -0.999714 0.023901 0.000245
vn -0.999999 -0.000901 0.000294
vn -0.999999 -0.000901 0.000294
vn -0.999999 -0.000901 0.000294
vn -0.999999 -0.000901 0.000294
vn 0.000000 -0.020117 -0.999798
vn 0.000000 -0.020117 -0.999798
vn 0.000000 -0.020117 -0.999798
vn 0.000000 -0.020117 -0.999798
vn 0.000000 -1.000000 0.000000
vn 0.000000 -1.000000 0.000000
vn 0.000000 -1.000000 0.000000
vn 0.000000 -1.000000 0.000000
vn 0.000000 -0.020246 0.999795
vn 0.000000 -0.020246 0.999795
vn 0.000000 -0.020246 0.999795
vn 0.000000 -0.020246 0.999795
vn 0.000000 1.000000 0.000000
vn 0.000000 1.000000 0.000000
vn 0.000000 1.000000 0.000000
vn 0.000000 1.000000 0.000000
vn 0.000000 -1.000000 0.000000
vn 0.000000 -1.000000 0.000000
vn 0.000000 -1.000000 0.000000
vn 0.000000 -1.000000 0.000000
vn 0.000000 -1.000000 0.000000
vn 0.000000 -1.000000 0.000000
vn 0.000000 -1.000000 0.000000
vn 0.000000 -1.000000 0.000000
vn 0.000000 -1.000000 0.000000
vn 0.000000 -1.000000 0.000000
vn 0.000000 -1.000000 0.000000
vn 0.000000 -1.000000 0.000000
vn 0.000000 -1.000000 0.000000
vn 0.000000 -1.000000 0.000000
vn 0.000000 -1.000000 0.000000
vn 0.000000 -1.000000 0.000000
vn 0.000000 -1.000000 0.000000
vn 0.000000 -1.000000 0.000000
vn 0.000000 -1.000000 0.000000
vn 0.000000 -1.000000 0.000000
vn 0.000000 0.000000 -1.000000
vn 0.000000 0.000000 -1.000000
vn 0.000000 0.000000 -1.000000
vn 0.000000 0.000000 -1.000000
vn 1.000000 0.000000 0.000000
vn 1.000000 0.000000 0.000000
vn 1.000000 0.000000 0.000000
vn 1.000000 0.000000 0.000000
vn -0.000001 0.000000 1.000000
vn -0.000001 0.000000 1.000000
vn -0.000001 0.000000 1.000000
vn -0.000001 0.000000 1.000000
vn -1.000000 0.000000 0.000000
vn -1.000000 0.000000 0.000000
vn -1.000000 0.000000 0.000000
vn -1.000000 0.000000 0.000000
vn 0.999653 0.026349 0.000000
vn 0.999653 0.026349 0.000000
vn 0.999653 0.026349 0.000000
vn 0.999653 0.026349 0.000000
vn 0.999713 0.023859 -0.002039
vn 0.999713 0.023859 -0.002039
vn 0.999713 0.023859 -0.002039
vn 0.999713 0.023859 -0.002039
vn 0.999999 0.000901 -0.000294
vn 0.999999 0.000901 -0.000294
vn 0.999999 0.000901 -0.000294
vn 0.999999 0.000901 -0.000294
vn 0.999713 0.023913 -0.001234
vn 0.999713 0.023913 -0.001234
vn 0.999713 0.023913 -0.001234
vn 0.999713 0.023913 -0.001234
vn 0.999999 -0.000901 -0.000294
vn 0.999999 -0.000901 -0.000294
vn 0.999999 -0.000901 -0.000294
vn 0.999999 -0.000901 -0.000294
vn 0.000000 -0.020116 -0.999798
vn 0.000000 -0.020116 -0.999798
vn 0.000000 -0.020116 -0.999798
vn 0.000000 -0.020116 -0.999798
vn 0.000000 1.000000 0.000000
vn 0.000000 1.000000 0.000000
vn 0.000000 1.000000 0.000000
vn 0.000000 1.000000 0.000000
vn 0.000000 -0.020248 0.999795
vn 0.000000 -0.020248 0.999795
vn 0.000000 -0.020248 0.999795
vn 0.000000 -0.020248 0.999795
vn 0.000000 -1.000000 0.000000
vn 0.000000 -1.000000 0.000000
vn 0.000000 -1.000000 0.000000
vn 0.000000 -1.000000 0.000000
vn 0.000000 0.026422 -0.999651
vn 0.000000 0.026422 -0.999651
vn 0.000000 0.026422 -0.999651
vn 0.000000 0.026422 -0.999651
vn 0.000498 0.023960 -0.999713
vn 0.000498 0.023960 -0.999713
vn 0.000498 0.023960 -0.999713
vn 0.000498 0.023960 -0.999713
vn 0.000000 0.000000 -1.000000
vn 0.000000 0.000000 -1.000000
vn 0.000000 0.000000 -1.000000
vn 0.000000 0.000000 -1.000000
vn -0.000500 0.023960 -0.999713
vn -0.000500 0.023960 -0.999713
vn -0.000500 0.023960 -0.999713
vn -0.000500 0.023960 -0.999713
vn 0.000000 0.000000 -1.000000
vn 0.000000 0.000000 -1.000000
vn 0.000000 0.000000 -1.000000
vn 0.000000 0.000000 -1.000000
vn -0.999797 -0.020154 0.000000
vn -0.999797 -0.020154 0.000000
vn -0.999797 -0.020154 0.000000
vn -0.999797 -0.020154 0.000000
vn 0.000000 1.000000 0.000000
vn 0.000000 1.000000 0.000000
vn 0.000000 1.000000 0.000000
vn 0.000000 1.000000 0.000000
vn 0.999796 -0.020210 0.000000
vn 0.999796 -0.020210 0.000000
vn 0.999796 -0.020210 0.000000
vn 0.999796 -0.020210 0.000000
vn 0.000000 -1.000000 0.000000
vn 0.000000 -1.000000 0.000000
vn 0.000000 -1.000000 0.000000
vn 0.000000 -1.000000 0.000000
vn 0.000000 0.026422 0.999651
vn 0.000000 0.026422 0.999651
vn 0.000000 0.026422 0.999651
vn 0.000000 0.026422 0.999651
vn -0.010316 0.024122 0.999656
vn -0.010316 0.024122 0.999656
vn -0.010316 0.024122 0.999656
vn -0.010316 0.024122 0.999656
vn 0.000000 -0.009872 0.999951
vn 0.000000 -0.009872 0.999951
vn 0.000000 -0.009872 0.999951
vn 0.000000 -0.009872 0.999951
vn 0.010422 0.024125 0.999655
vn 0.010422 0.024125 0.999655
vn 0.010422 0.024125 0.999655
vn 0.010422 0.024125 0.999655
vn 0.000000 0.009873 0.999951
vn 0.000000 0.009873 0.999951
vn 0.000000 0.009873 0.999951
vn 0.000000 0.009873 0.999951
vn 0.999798 -0.020123 0.000000
vn 0.999798 -0.020123 0.000000
vn 0.999798 -0.020123 0.000000
vn 0.999798 -0.020123 0.000000
vn 0.000000 1.000000 0.000000
vn 0.000000 1.000000 0.000000
vn 0.000000 1.000000 0.000000
vn 0.000000 1.000000 0.000000
vn -0.999795 -0.020242 0.000000
vn -0.999795 -0.020242 0.000000
vn -0.999795 -0.020242 0.000000
vn -0.999795 -0.020242 0.000000
vn 0.000000 -1.000000 0.000000
vn 0.000000 -1.000000 0.000000
vn 0.000000 -1.000000 0.000000
vn 0.000000 -1.000000 0.000000
f 9/9/1 10/10/2 11/11/3 12/12/4
f 1/5/5 2/6/6 6/2/7 5/1/8
f 2/6/9 4/7/10 7/3/11 6/2/12
f 4/7/13 3/8/14 8/4/15 7/3/16
f 3/8/17 1/5/18 5/1/19 8/4/20
f 5/1/21 6/2/22 10/10/23 9/9/24
f 6/2/25 7/3/26 11/11/27 10/10/28
f 7/3/29 8/4/30 12/12/31 11/11/32
f 8/4/33 5/1/34 9/9/35 12/12/36
f 19/13/37 20/14/38 21/15/39 22/16/40
f 13/17/41 1/18/42 16/19/43 15/20/44
f 1/18/45 3/21/46 17/22/47 16/19/48
f 3/21/49 14/23/50 18/24/51 17/22/52
f 14/23/53 13/17/54 15/20/55 18/24/56
f 15/20/57 16/19/58 20/14/59 19/13/60
f 16/19/61 17/22/62 21/15/63 20/14/64
f 17/22/65 18/24/66 22/16/67 21/15/68
f 18/24/69 15/20/70 19/13/71 22/16/72
f 29/25/73 30/26/74 31/27/75 32/28/76
f 23/29/77 13/30/78 26/31/79 25/32/80
f 13/30/81 14/33/82 27/34/83 26/31/84
f 14/33/85 24/35/86 28/36/87 27/34/88
f 24/35/89 23/29/90 25/32/91 28/36/92
f 25/32/93 26/31/94 30/26/95 29/25/96
f 26/31/97 27/34/98 31/27/99 30/26/100
f 27/34/101 28/36/102 32/28/103 31/27/104
f 28/36/105 25/32/106 29/25/107 32/28/108
f 37/37/109 38/38/110 39/39/111 40/40/112
f 2/41/113 23/42/114 34/43/115 33/44/116
f 23/42/117 24/45/118 35/46/119 34/43/120
f 24/45/121 4/47/122 36/48/123 35/46/124
f 4/47/125 2/41/126 33/44/127 36/48/128
f 33/44/129 34/43/130 38/38/131 37/37/132
f 34/43/133 35/46/134 39/39/135 38/38/136
f 35/46/137 36/48/138 40/40/139 39/39/140
f 36/48/141 33/44/142 37/37/143 40/40/144
f 45/49/145 46/50/146 47/51/147 48/52/148
f 4/53/149 24/54/150 42/55/151 41/56/152
f 24/54/153 14/57/154 43/58/155 42/55/156
f 14/57/157 3/59/158 44/60/159 43/58/160
f 3/59/161 4/53/162 41/56/163 44/60/164
f 41/56/165 42/55/166 46/50/167 45/49/168
f 42/55/169 43/58/170 47/51/171 46/50/172
f 43/58/173 44/60/174 48/52/175 47/51/176
f 44/60/177 41/56/178 45/49/179 48/52/180
f 53/61/181 54/62/182 55/63/183 56/64/184
f 1/65/185 13/66/186 50/67/187 49/68/188
f 13/66/189 23/69/190 51/70/191 50/67/192
f 23/69/193 2/71/194 52/72/195 51/70/196
f 2/71/197 1/65/198 49/68/199 52/72/200
f 49/68/201 50/67/202 54/62/203 53/61/204
f 50/67/205 51/70/206 55/63/207 54/62/208
f 51/70/209 52/72/210 56/64/211 55/63/212
f 52/72/213 49/68/214 53/61/215 56/64/216
